<svg xmlns="http://www.w3.org/2000/svg" viewBox="0 0 800 400">
  <rect width="800" height="400" fill="#f5f5f5" rx="8"/>
  <text x="400" y="30" text-anchor="middle" font-family="Arial" font-size="16" font-weight="bold" fill="#333">Overview Dashboard</text>
  <text x="400" y="390" text-anchor="middle" font-family="Arial" font-size="11" fill="#999">PLACEHOLDER - Replace with actual screenshot</text>

  <!-- Metric cards -->
  <rect x="20" y="50" width="180" height="80" fill="white" stroke="#ddd" stroke-width="1" rx="6"/>
  <text x="110" y="75" text-anchor="middle" font-family="Arial" font-size="11" fill="#666">Experiments Run</text>
  <text x="110" y="110" text-anchor="middle" font-family="Arial" font-size="28" font-weight="bold" fill="#1565C0">42</text>

  <rect x="210" y="50" width="180" height="80" fill="white" stroke="#ddd" stroke-width="1" rx="6"/>
  <text x="300" y="75" text-anchor="middle" font-family="Arial" font-size="11" fill="#666">Resilient %</text>
  <text x="300" y="110" text-anchor="middle" font-family="Arial" font-size="28" font-weight="bold" fill="#2E7D32">87%</text>

  <rect x="400" y="50" width="180" height="80" fill="white" stroke="#ddd" stroke-width="1" rx="6"/>
  <text x="490" y="75" text-anchor="middle" font-family="Arial" font-size="11" fill="#666">Active</text>
  <text x="490" y="110" text-anchor="middle" font-family="Arial" font-size="28" font-weight="bold" fill="#F57C00">3</text>

  <rect x="590" y="50" width="180" height="80" fill="white" stroke="#ddd" stroke-width="1" rx="6"/>
  <text x="680" y="75" text-anchor="middle" font-family="Arial" font-size="11" fill="#666">Components</text>
  <text x="680" y="110" text-anchor="middle" font-family="Arial" font-size="28" font-weight="bold" fill="#5E35B1">12</text>

  <!-- Recent results table -->
  <rect x="20" y="150" width="750" height="220" fill="white" stroke="#ddd" stroke-width="1" rx="6"/>
  <text x="30" y="175" font-family="Arial" font-size="13" font-weight="bold" fill="#333">Recent Experiment Results</text>
  <line x1="30" y1="185" x2="760" y2="185" stroke="#ddd" stroke-width="1"/>
  <text x="30" y="205" font-family="Arial" font-size="10" fill="#666">Name</text>
  <text x="250" y="205" font-family="Arial" font-size="10" fill="#666">Type</text>
  <text x="400" y="205" font-family="Arial" font-size="10" fill="#666">Verdict</text>
  <text x="550" y="205" font-family="Arial" font-size="10" fill="#666">Component</text>
  <text x="680" y="205" font-family="Arial" font-size="10" fill="#666">Date</text>
  <line x1="30" y1="210" x2="760" y2="210" stroke="#ddd" stroke-width="1"/>
  <text x="30" y="230" font-family="Arial" font-size="10" fill="#333">pod-deletion-test</text>
  <text x="250" y="230" font-family="Arial" font-size="10" fill="#333">PodFailure</text>
  <text x="400" y="230" font-family="Arial" font-size="10" fill="#2E7D32">Pass</text>
  <text x="30" y="250" font-family="Arial" font-size="10" fill="#333">network-partition-test</text>
  <text x="250" y="250" font-family="Arial" font-size="10" fill="#333">NetworkChaos</text>
  <text x="400" y="250" font-family="Arial" font-size="10" fill="#C62828">Fail</text>
  <text x="30" y="270" font-family="Arial" font-size="10" fill="#333">cpu-stress-test</text>
  <text x="250" y="270" font-family="Arial" font-size="10" fill="#333">StressChaos</text>
  <text x="400" y="270" font-family="Arial" font-size="10" fill="#2E7D32">Pass</text>
</svg>