<svg xmlns="http://www.w3.org/2000/svg" viewBox="0 0 800 400">
  <rect width="800" height="400" fill="#f5f5f5" rx="8"/>
  <text x="400" y="30" text-anchor="middle" font-family="Arial" font-size="16" font-weight="bold" fill="#333">Experiment Suites</text>
  <text x="400" y="390" text-anchor="middle" font-family="Arial" font-size="11" fill="#999">PLACEHOLDER - Replace with actual screenshot</text>

  <!-- Suite cards -->
  <rect x="20" y="50" width="350" height="120" fill="white" stroke="#ddd" stroke-width="1" rx="6"/>
  <text x="30" y="75" font-family="Arial" font-size="13" font-weight="bold" fill="#333">Operator Resilience Suite</text>
  <text x="30" y="95" font-family="Arial" font-size="10" fill="#666">5 experiments</text>
  <text x="30" y="110" font-family="Arial" font-size="10" fill="#666">Last run: 2024-03-15 14:32</text>
  <text x="30" y="125" font-family="Arial" font-size="10" fill="#666">Pass rate: 80%</text>
  <rect x="30" y="135" width="200" height="20" fill="#eee" stroke="#ccc" stroke-width="1" rx="3"/>
  <rect x="30" y="135" width="160" height="20" fill="#2E7D32" rx="3"/>
  <text x="130" y="149" text-anchor="middle" font-family="Arial" font-size="9" fill="white">4/5 passed</text>

  <rect x="390" y="50" width="350" height="120" fill="white" stroke="#ddd" stroke-width="1" rx="6"/>
  <text x="400" y="75" font-family="Arial" font-size="13" font-weight="bold" fill="#333">Network Failure Suite</text>
  <text x="400" y="95" font-family="Arial" font-size="10" fill="#666">3 experiments</text>
  <text x="400" y="110" font-family="Arial" font-size="10" fill="#666">Last run: 2024-03-14 10:15</text>
  <text x="400" y="125" font-family="Arial" font-size="10" fill="#666">Pass rate: 67%</text>
  <rect x="400" y="135" width="200" height="20" fill="#eee" stroke="#ccc" stroke-width="1" rx="3"/>
  <rect x="400" y="135" width="134" height="20" fill="#F57C00" rx="3"/>
  <text x="500" y="149" text-anchor="middle" font-family="Arial" font-size="9" fill="white">2/3 passed</text>

  <!-- Run comparison -->
  <rect x="20" y="190" width="750" height="180" fill="white" stroke="#ddd" stroke-width="1" rx="6"/>
  <text x="30" y="215" font-family="Arial" font-size="13" font-weight="bold" fill="#333">Run Comparison - Operator Resilience Suite</text>
  <line x1="30" y1="225" x2="760" y2="225" stroke="#ddd" stroke-width="1"/>

  <text x="30" y="245" font-family="Arial" font-size="10" font-weight="bold" fill="#666">Experiment</text>
  <text x="250" y="245" font-family="Arial" font-size="10" font-weight="bold" fill="#666">Run 1 (Mar 15)</text>
  <text x="400" y="245" font-family="Arial" font-size="10" font-weight="bold" fill="#666">Run 2 (Mar 10)</text>
  <text x="550" y="245" font-family="Arial" font-size="10" font-weight="bold" fill="#666">Run 3 (Mar 5)</text>
  <line x1="30" y1="252" x2="760" y2="252" stroke="#ddd" stroke-width="1"/>

  <text x="30" y="272" font-family="Arial" font-size="9" fill="#333">pod-deletion</text>
  <text x="250" y="272" font-family="Arial" font-size="9" fill="#2E7D32">Pass (2m 15s)</text>
  <text x="400" y="272" font-family="Arial" font-size="9" fill="#2E7D32">Pass (2m 10s)</text>
  <text x="550" y="272" font-family="Arial" font-size="9" fill="#2E7D32">Pass (2m 20s)</text>

  <text x="30" y="292" font-family="Arial" font-size="9" fill="#333">network-partition</text>
  <text x="250" y="292" font-family="Arial" font-size="9" fill="#C62828">Fail (timeout)</text>
  <text x="400" y="292" font-family="Arial" font-size="9" fill="#2E7D32">Pass (4m 30s)</text>
  <text x="550" y="292" font-family="Arial" font-size="9" fill="#2E7D32">Pass (4m 25s)</text>

  <text x="30" y="312" font-family="Arial" font-size="9" fill="#333">cpu-stress</text>
  <text x="250" y="312" font-family="Arial" font-size="9" fill="#2E7D32">Pass (3m 45s)</text>
  <text x="400" y="312" font-family="Arial" font-size="9" fill="#2E7D32">Pass (3m 50s)</text>
  <text x="550" y="312" font-family="Arial" font-size="9" fill="#F57C00">Inconclusive</text>
</svg>