<svg xmlns="http://www.w3.org/2000/svg" viewBox="0 0 800 400">
  <rect width="800" height="400" fill="#f5f5f5" rx="8"/>
  <text x="400" y="30" text-anchor="middle" font-family="Arial" font-size="16" font-weight="bold" fill="#333">Experiment Detail</text>
  <text x="400" y="390" text-anchor="middle" font-family="Arial" font-size="11" fill="#999">PLACEHOLDER - Replace with actual screenshot</text>

  <!-- Tab navigation -->
  <rect x="20" y="50" width="100" height="30" fill="white" stroke="#1565C0" stroke-width="2" rx="6"/>
  <text x="70" y="70" text-anchor="middle" font-family="Arial" font-size="11" fill="#1565C0">Timeline</text>
  <rect x="125" y="50" width="100" height="30" fill="white" stroke="#ddd" stroke-width="1" rx="6"/>
  <text x="175" y="70" text-anchor="middle" font-family="Arial" font-size="11" fill="#666">Events</text>
  <rect x="230" y="50" width="100" height="30" fill="white" stroke="#ddd" stroke-width="1" rx="6"/>
  <text x="280" y="70" text-anchor="middle" font-family="Arial" font-size="11" fill="#666">Raw YAML</text>

  <!-- Content area -->
  <rect x="20" y="95" width="750" height="275" fill="white" stroke="#ddd" stroke-width="1" rx="6"/>
  <text x="30" y="120" font-family="Arial" font-size="13" font-weight="bold" fill="#333">pod-deletion-test</text>
  <text x="30" y="140" font-family="Arial" font-size="11" fill="#666">Type: PodFailure</text>
  <text x="30" y="155" font-family="Arial" font-size="11" fill="#666">Verdict: Pass</text>
  <text x="30" y="170" font-family="Arial" font-size="11" fill="#666">Component: dashboard-controller</text>

  <!-- Timeline visualization -->
  <line x1="50" y1="200" x2="750" y2="200" stroke="#ddd" stroke-width="2"/>
  <circle cx="150" cy="200" r="6" fill="#2E7D32"/>
  <text x="150" y="220" text-anchor="middle" font-family="Arial" font-size="9" fill="#666">Setup</text>
  <circle cx="300" cy="200" r="6" fill="#2E7D32"/>
  <text x="300" y="220" text-anchor="middle" font-family="Arial" font-size="9" fill="#666">Inject</text>
  <circle cx="450" cy="200" r="6" fill="#2E7D32"/>
  <text x="450" y="220" text-anchor="middle" font-family="Arial" font-size="9" fill="#666">Observe</text>
  <circle cx="600" cy="200" r="6" fill="#2E7D32"/>
  <text x="600" y="220" text-anchor="middle" font-family="Arial" font-size="9" fill="#666">Teardown</text>

  <!-- Metrics -->
  <text x="30" y="250" font-family="Arial" font-size="11" font-weight="bold" fill="#333">Metrics:</text>
  <text x="40" y="270" font-family="Arial" font-size="10" fill="#666">Duration: 5m 32s</text>
  <text x="40" y="285" font-family="Arial" font-size="10" fill="#666">Recovery Time: 2m 15s</text>
  <text x="40" y="300" font-family="Arial" font-size="10" fill="#666">Recovery Cycles: 1</text>
  <text x="40" y="315" font-family="Arial" font-size="10" fill="#666">Deviation Score: 0.12</text>

  <text x="300" y="270" font-family="Arial" font-size="10" fill="#666">Pods Affected: 3</text>
  <text x="300" y="285" font-family="Arial" font-size="10" fill="#666">Events Captured: 47</text>
  <text x="300" y="300" font-family="Arial" font-size="10" fill="#666">State Transitions: 12</text>
</svg>