<svg xmlns="http://www.w3.org/2000/svg" viewBox="0 0 600 300">
  <rect width="600" height="300" fill="#1a1a1a" rx="4"/>
  <text x="10" y="25" font-family="Arial" font-size="14" font-weight="bold" fill="#fff">Component Health</text>
  <text x="300" y="290" text-anchor="middle" font-family="Arial" font-size="9" fill="#999">PLACEHOLDER - Replace with Grafana screenshot</text>

  <!-- Table headers -->
  <rect x="20" y="50" width="560" height="30" fill="#2a2a2a"/>
  <text x="30" y="70" font-family="Arial" font-size="11" font-weight="bold" fill="#ccc">Component</text>
  <text x="200" y="70" font-family="Arial" font-size="11" font-weight="bold" fill="#ccc">Status</text>
  <text x="320" y="70" font-family="Arial" font-size="11" font-weight="bold" fill="#ccc">Experiments</text>
  <text x="450" y="70" font-family="Arial" font-size="11" font-weight="bold" fill="#ccc">Resilience</text>

  <!-- Table rows -->
  <rect x="20" y="80" width="560" height="30" fill="#1f1f1f"/>
  <text x="30" y="100" font-family="Arial" font-size="10" fill="#fff">dashboard-controller</text>
  <circle cx="215" cy="96" r="5" fill="#2E7D32"/>
  <text x="230" y="100" font-family="Arial" font-size="10" fill="#fff">Healthy</text>
  <text x="340" y="100" font-family="Arial" font-size="10" fill="#fff">12</text>
  <rect x="460" y="90" width="80" height="15" fill="#2E7D32" fill-opacity="0.3" rx="2"/>
  <text x="500" y="101" text-anchor="middle" font-family="Arial" font-size="9" fill="#fff">87%</text>

  <rect x="20" y="110" width="560" height="30" fill="#252525"/>
  <text x="30" y="130" font-family="Arial" font-size="10" fill="#fff">kserve-controller</text>
  <circle cx="215" cy="126" r="5" fill="#F57C00"/>
  <text x="230" y="130" font-family="Arial" font-size="10" fill="#fff">Degraded</text>
  <text x="340" y="130" font-family="Arial" font-size="10" fill="#fff">8</text>
  <rect x="460" y="120" width="50" height="15" fill="#F57C00" fill-opacity="0.3" rx="2"/>
  <text x="485" y="131" text-anchor="middle" font-family="Arial" font-size="9" fill="#fff">62%</text>

  <rect x="20" y="140" width="560" height="30" fill="#1f1f1f"/>
  <text x="30" y="160" font-family="Arial" font-size="10" fill="#fff">model-mesh</text>
  <circle cx="215" cy="156" r="5" fill="#2E7D32"/>
  <text x="230" y="160" font-family="Arial" font-size="10" fill="#fff">Healthy</text>
  <text x="340" y="160" font-family="Arial" font-size="10" fill="#fff">15</text>
  <rect x="460" y="150" width="75" height="15" fill="#2E7D32" fill-opacity="0.3" rx="2"/>
  <text x="497" y="161" text-anchor="middle" font-family="Arial" font-size="9" fill="#fff">93%</text>

  <rect x="20" y="170" width="560" height="30" fill="#252525"/>
  <text x="30" y="190" font-family="Arial" font-size="10" fill="#fff">workbenches</text>
  <circle cx="215" cy="186" r="5" fill="#2E7D32"/>
  <text x="230" y="190" font-family="Arial" font-size="10" fill="#fff">Healthy</text>
  <text x="340" y="190" font-family="Arial" font-size="10" fill="#fff">10</text>
  <rect x="460" y="180" width="70" height="15" fill="#2E7D32" fill-opacity="0.3" rx="2"/>
  <text x="495" y="191" text-anchor="middle" font-family="Arial" font-size="9" fill="#fff">85%</text>

  <rect x="20" y="200" width="560" height="30" fill="#1f1f1f"/>
  <text x="30" y="220" font-family="Arial" font-size="10" fill="#fff">pipelines</text>
  <circle cx="215" cy="216" r="5" fill="#C62828"/>
  <text x="230" y="220" font-family="Arial" font-size="10" fill="#fff">Unhealthy</text>
  <text x="340" y="220" font-family="Arial" font-size="10" fill="#fff">6</text>
  <rect x="460" y="210" width="35" height="15" fill="#C62828" fill-opacity="0.3" rx="2"/>
  <text x="477" y="221" text-anchor="middle" font-family="Arial" font-size="9" fill="#fff">45%</text>
</svg>