<svg xmlns="http://www.w3.org/2000/svg" viewBox="0 0 600 300">
  <rect width="600" height="300" fill="#1a1a1a" rx="4"/>
  <text x="10" y="25" font-family="Arial" font-size="14" font-weight="bold" fill="#fff">Experiment Timeline</text>
  <text x="300" y="290" text-anchor="middle" font-family="Arial" font-size="9" fill="#999">PLACEHOLDER - Replace with Grafana screenshot</text>

  <!-- Grid lines -->
  <line x1="50" y1="60" x2="550" y2="60" stroke="#333" stroke-width="1" stroke-dasharray="2,2"/>
  <line x1="50" y1="110" x2="550" y2="110" stroke="#333" stroke-width="1" stroke-dasharray="2,2"/>
  <line x1="50" y1="160" x2="550" y2="160" stroke="#333" stroke-width="1" stroke-dasharray="2,2"/>
  <line x1="50" y1="210" x2="550" y2="210" stroke="#333" stroke-width="1" stroke-dasharray="2,2"/>

  <!-- Axes -->
  <line x1="50" y1="260" x2="550" y2="260" stroke="#555" stroke-width="1"/>
  <line x1="50" y1="60" x2="50" y2="260" stroke="#555" stroke-width="1"/>

  <!-- Time series line -->
  <polyline points="50,200 100,180 150,160 200,140 250,150 300,120 350,110 400,130 450,100 500,90 550,85"
            fill="none" stroke="#1565C0" stroke-width="2"/>

  <!-- Data points -->
  <circle cx="50" cy="200" r="3" fill="#1565C0"/>
  <circle cx="100" cy="180" r="3" fill="#1565C0"/>
  <circle cx="150" cy="160" r="3" fill="#1565C0"/>
  <circle cx="200" cy="140" r="3" fill="#1565C0"/>
  <circle cx="250" cy="150" r="3" fill="#1565C0"/>
  <circle cx="300" cy="120" r="3" fill="#1565C0"/>
  <circle cx="350" cy="110" r="3" fill="#1565C0"/>
  <circle cx="400" cy="130" r="3" fill="#1565C0"/>
  <circle cx="450" cy="100" r="3" fill="#1565C0"/>
  <circle cx="500" cy="90" r="3" fill="#1565C0"/>
  <circle cx="550" cy="85" r="3" fill="#1565C0"/>

  <!-- Time labels -->
  <text x="50" y="278" text-anchor="middle" font-family="Arial" font-size="9" fill="#999">00:00</text>
  <text x="200" y="278" text-anchor="middle" font-family="Arial" font-size="9" fill="#999">06:00</text>
  <text x="350" y="278" text-anchor="middle" font-family="Arial" font-size="9" fill="#999">12:00</text>
  <text x="500" y="278" text-anchor="middle" font-family="Arial" font-size="9" fill="#999">18:00</text>

  <!-- Y-axis labels -->
  <text x="40" y="65" text-anchor="end" font-family="Arial" font-size="9" fill="#999">10</text>
  <text x="40" y="115" text-anchor="end" font-family="Arial" font-size="9" fill="#999">7.5</text>
  <text x="40" y="165" text-anchor="end" font-family="Arial" font-size="9" fill="#999">5</text>
  <text x="40" y="215" text-anchor="end" font-family="Arial" font-size="9" fill="#999">2.5</text>
  <text x="40" y="265" text-anchor="end" font-family="Arial" font-size="9" fill="#999">0</text>
</svg>